HIERARCHY
ROOT Hips
{
	OFFSET 0.000000 0.000000 0.000000
	CHANNELS 6 Xposition Yposition Zposition Zrotation Yrotation Xrotation 
	JOINT LHipJoint
	{
		OFFSET 0.000000 0.000000 0.000000
		CHANNELS 3 Zrotation Yrotation Xrotation
		JOINT LeftUpLeg
		{
			OFFSET 1.363060 -1.794630 0.839290
			CHANNELS 3 Zrotation Yrotation Xrotation
			JOINT LeftLeg
			{
				OFFSET 2.448110 -6.726130 0.000000
				CHANNELS 3 Zrotation Yrotation Xrotation
				JOINT LeftFoot
				{
					OFFSET 2.562200 -7.039590 0.000000
					CHANNELS 3 Zrotation Yrotation Xrotation
					JOINT LeftToeBase
					{
						OFFSET 0.157640 -0.433110 2.322550
						CHANNELS 3 Zrotation Yrotation Xrotation
						End Site
						{
							OFFSET 0.000000 0.000000 0.000000
						}
					}
				}
			}
		}
	}
	JOINT RHipJoint
	{
		OFFSET 0.000000 0.000000 0.000000
		CHANNELS 3 Zrotation Yrotation Xrotation
		JOINT RightUpLeg
		{
			OFFSET -1.305520 -1.794630 0.839290
			CHANNELS 3 Zrotation Yrotation Xrotation
			JOINT RightLeg
			{
				OFFSET -2.542530 -6.985550 0.000000
				CHANNELS 3 Zrotation Yrotation Xrotation
				JOINT RightFoot
				{
					OFFSET -2.568260 -7.056230 0.000000
					CHANNELS 3 Zrotation Yrotation Xrotation
					JOINT RightToeBase
					{
						OFFSET -0.164730 -0.452590 2.363150
						CHANNELS 3 Zrotation Yrotation Xrotation
						End Site
						{
							OFFSET 0.000000 0.000000 0.000000
						}
					}
				}
			}
		}
	}
	JOINT LowerBack
	{
		OFFSET 0.000000 0.000000 0.000000
		CHANNELS 3 Zrotation Yrotation Xrotation
		JOINT Spine
		{
			OFFSET 0.028270 2.035590 -0.193380
			CHANNELS 3 Zrotation Yrotation Xrotation
			JOINT Spine1
			{
				OFFSET 0.056720 2.048850 -0.042750
				CHANNELS 3 Zrotation Yrotation Xrotation
				JOINT Neck
				{
					OFFSET 0.000000 0.000000 0.000000
					CHANNELS 3 Zrotation Yrotation Xrotation
					JOINT Neck1
					{
						OFFSET -0.054170 1.746240 0.172020
						CHANNELS 3 Zrotation Yrotation Xrotation
						JOINT Head
						{
							OFFSET 0.104070 1.761360 -0.123970
							CHANNELS 3 Zrotation Yrotation Xrotation
							End Site
							{
								OFFSET 0.000000 0.000000 0.000000
							}
						}
					}
				}
				JOINT LeftShoulder
				{
					OFFSET 0.000000 0.000000 0.000000
					CHANNELS 3 Zrotation Yrotation Xrotation
					JOINT LeftArm
					{
						OFFSET 3.362410 1.200890 -0.311210
						CHANNELS 3 Zrotation Yrotation Xrotation
						JOINT LeftForeArm
						{
							OFFSET 4.983000 -0.000000 -0.000000
							CHANNELS 3 Zrotation Yrotation Xrotation
							JOINT LeftHand
							{
								OFFSET 3.483560 -0.000000 -0.000000
								CHANNELS 3 Zrotation Yrotation Xrotation
								JOINT LeftFingerBase
								{
									OFFSET 0.000000 0.000000 0.000000
									CHANNELS 3 Zrotation Yrotation Xrotation
									JOINT LeftHandIndex1
									{
										OFFSET 0.715260 -0.000000 -0.000000
										CHANNELS 3 Zrotation Yrotation Xrotation
										End Site
										{
											OFFSET 0.000000 0.000000 0.000000
										}
									}
								}
								JOINT LThumb
								{
									OFFSET 0.000000 0.000000 0.000000
									CHANNELS 3 Zrotation Yrotation Xrotation
									End Site
									{
										OFFSET 0.000000 0.000000 0.000000
									}
								}
							}
						}
					}
				}
				JOINT RightShoulder
				{
					OFFSET 0.000000 0.000000 0.000000
					CHANNELS 3 Zrotation Yrotation Xrotation
					JOINT RightArm
					{
						OFFSET -3.136600 1.374050 -0.404650
						CHANNELS 3 Zrotation Yrotation Xrotation
						JOINT RightForeArm
						{
							OFFSET -5.241900 -0.000000 -0.000000
							CHANNELS 3 Zrotation Yrotation Xrotation
							JOINT RightHand
							{
								OFFSET -3.444170 -0.000000 -0.000000
								CHANNELS 3 Zrotation Yrotation Xrotation
								JOINT RightFingerBase
								{
									OFFSET 0.000000 0.000000 0.000000
									CHANNELS 3 Zrotation Yrotation Xrotation
									JOINT RightHandIndex1
									{
										OFFSET -0.622530 -0.000000 -0.000000
										CHANNELS 3 Zrotation Yrotation Xrotation
										End Site
										{
											OFFSET 0.000000 0.000000 0.000000
										}
									}
								}
								JOINT RThumb
								{
									OFFSET 0.000000 0.000000 0.000000
									CHANNELS 3 Zrotation Yrotation Xrotation
									End Site
									{
										OFFSET 0.000000 0.000000 0.000000
									}
								}
							}
						}
					}
				}
			}
		}
	}
}
MOTION
Frames: 5
Frame Time: 0.008333
15.234786 17.854853 -5.925085 103.122983 -85.343231 -95.522962 -6.603094 0.464400 2.733026 -19.095331 -3.224661 -13.619436 1.088278 7.700112 23.726265 0.467245 0.584769 -9.147681 0.091900 1.955300 5.382100 2.432162 -1.553355 1.431358 7.177987 8.989676 -24.797135 -7.321423 -14.799594 49.045229 1.424059 -12.838208 -11.478231 -0.159200 -2.570800 7.086000 -4.965937 1.666092 -2.584466 -0.936352 2.070363 0.234937 -1.573961 0.679344 -0.641846 -7.750169 -6.452721 -10.459473 5.125802 -8.702587 15.378287 1.762000 -4.274500 8.104100 -3.989395 -2.144324 -0.019712 -84.032082 5.168213 10.374654 15.152556 -17.005172 -2.264402 -1.181654 -1.424874 1.264492 23.408336 15.911321 7.758700 -7.125000 0.000000 0.000000 -3.309300 48.901300 -0.318700 1.608914 1.747188 0.167697 80.271496 1.137335 -14.885440 -18.768537 27.445639 -4.544017 0.695729 -0.791601 -3.500537 -26.291004 35.117645 -16.560400 7.125000 0.000000 0.000000 3.465000 8.949100 3.968600 
15.215597 17.852210 -5.919505 100.775553 -85.269652 -93.393259 -6.599628 0.515052 2.772982 -19.220107 -3.344763 -13.170929 1.051275 7.635978 23.504694 0.490583 0.500504 -9.200066 0.121200 2.244800 6.182700 2.434324 -1.526249 1.422847 7.018817 8.847510 -25.305899 -7.548203 -14.985045 49.911717 1.239533 -11.916646 -11.942566 -0.233400 -3.109400 8.583500 -5.158123 1.642062 -2.333733 -0.942677 2.025665 0.297745 -1.485550 0.661283 -0.736302 -7.767795 -6.568667 -10.387133 5.141596 -8.875406 15.429552 1.757300 -4.357500 8.117700 -3.994272 -2.147784 -0.013086 -83.937993 5.058733 9.949187 14.968903 -16.744076 -2.188375 -1.176342 -1.447322 1.846145 22.871480 16.514818 7.826800 -7.125000 0.000000 0.000000 -3.993500 49.493400 -0.443100 1.589897 1.762899 0.165897 79.747262 1.502687 -14.161665 -19.280899 28.098551 -4.794893 0.708940 -0.762092 -4.654514 -26.252778 35.038145 -16.497500 7.125000 0.000000 0.000000 3.466500 8.841000 3.964900 
15.196407 17.851427 -5.911672 99.974274 -85.009407 -92.555654 -6.615984 0.532149 2.777648 -19.546338 -3.535510 -12.982121 1.032202 7.581375 23.359246 0.538373 0.331864 -9.347189 0.302100 3.533700 9.768400 2.434201 -1.515789 1.423179 6.594287 8.930373 -26.063199 -7.715582 -15.116290 50.537908 1.124335 -11.300227 -12.100749 -0.297600 -3.507800 9.695800 -5.541083 1.593094 -2.302537 -1.048764 1.946392 0.263397 -1.364570 0.621555 -0.780832 -7.389214 -6.454919 -10.694342 4.914448 -8.751487 15.748685 1.620500 -4.285700 8.250200 -3.993680 -2.153777 -0.006507 -83.835910 5.013005 9.652193 14.813533 -16.532295 -2.129782 -1.235917 -1.433781 1.631233 23.632897 16.512874 8.117900 -7.125000 0.000000 0.000000 -3.177900 49.600500 -0.360800 1.572223 1.772645 0.162092 79.321355 1.904792 -13.226564 -19.841422 28.797304 -5.077774 0.717609 -0.727507 -5.578793 -26.144260 34.660005 -16.272000 7.125000 0.000000 0.000000 3.443800 8.402500 3.916600 
15.181134 17.852014 -5.902763 98.950820 -84.891831 -91.368927 -6.626516 0.543393 2.770316 -19.724541 -3.691904 -12.959356 1.007816 7.525751 23.204228 0.548874 0.304830 -9.424512 0.454500 4.324900 11.992400 2.436836 -1.509577 1.423219 6.318887 9.079270 -26.900748 -7.862128 -15.214677 51.062628 1.069172 -10.966255 -12.044438 -0.304200 -3.546200 9.803400 -5.573711 1.570028 -2.325146 -1.139575 1.904437 0.170070 -1.426161 0.601972 -0.818067 -7.485849 -6.422655 -10.981197 5.034344 -8.708515 16.153905 1.672600 -4.254900 8.455200 -4.001067 -2.160786 0.002125 -83.740313 4.848507 9.330294 14.622649 -16.262480 -2.059682 -1.303434 -1.399464 1.538894 24.475564 16.308140 8.344500 -7.125000 0.000000 0.000000 -2.228700 49.483500 -0.246500 1.559504 1.801380 0.170530 78.886608 2.668799 -13.186154 -20.089459 29.112822 -5.203778 0.718228 -0.722313 -5.846306 -26.161430 34.781701 -16.327000 7.125000 0.000000 0.000000 3.460100 8.528400 3.941700 
15.167525 17.854266 -5.905112 95.818292 -84.806165 -88.161463 -6.618048 0.577528 2.777912 -19.817467 -3.721201 -12.960694 0.988718 7.494990 23.098016 0.491350 0.483408 -9.199975 0.210600 2.954300 8.151600 2.448064 -1.480407 1.416320 6.156512 9.148915 -27.544074 -7.954609 -15.264881 51.391757 0.972906 -10.438038 -12.216086 -0.379700 -3.957200 10.956300 -5.584979 1.518388 -2.210916 -1.202373 1.815718 0.063505 -1.475362 0.566620 -0.937495 -8.022803 -6.519610 -10.857937 5.456960 -8.830338 16.336916 1.899500 -4.317000 8.550100 -4.013007 -2.160180 0.013148 -83.626114 4.652935 8.396161 14.405813 -15.963843 -1.974431 -1.320846 -1.371199 3.111007 24.066410 16.727186 8.373600 -7.125000 0.000000 0.000000 -2.741200 49.870700 -0.329400 1.555033 1.838104 0.186326 78.367888 3.615092 -13.732708 -20.040231 29.069580 -5.177674 0.710767 -0.736946 -5.565417 -26.167788 35.149051 -16.470800 7.125000 0.000000 0.000000 3.536500 8.915000 4.049000 
